# xmcd CD database file
#
# Track frame offsets:
#	150
#	28438
#	64228
#	95557
#	123800
#	155756
#	180899
#	205321
#
# Disc length: 2903 seconds
#
# Revision: 1
# Processed by: cddbd v1.5.1PL0 Copyright (c) Steve Scherf et al.
# Submitted via: CDex 1.51
#
DISCID=6c0b5508
DTITLE=Eddie Clearwater and Carey Bell - Chicago Blues Session Vol. 23
DYEAR=1900
DGENRE=Blues
TTITLE0=I'm Gonna Move
TTITLE1=Carey's Boogie
TTITLE2=Last Night
TTITLE3=I Wouldn't Lay My Guitar Down
TTITLE4=Jump Back Jack
TTITLE5=Got My Mojo Working
TTITLE6=One Day
TTITLE7=Close Out Theme
EXTD=
EXTT0=
EXTT1=
EXTT2=
EXTT3=
EXTT4=
EXTT5=
EXTT6=
EXTT7=
PLAYORDER=
